<svg width="20" height="20" viewBox="0 0 20 20" fill="none" xmlns="http://www.w3.org/2000/svg">
<path d="M10 0C4.47 0 0 4.47 0 10C0 15.53 4.47 20 10 20C15.53 20 20 15.53 20 10C20 4.47 15.53 0 10 0ZM14.295 12.885C14.6844 13.2744 14.6844 13.9056 14.295 14.295C13.9056 14.6844 13.2744 14.6844 12.885 14.295L10 11.41L7.115 14.295C6.72564 14.6844 6.09436 14.6844 5.705 14.295C5.31564 13.9056 5.31564 13.2744 5.705 12.885L8.59 10L5.705 7.115C5.31564 6.72564 5.31564 6.09436 5.705 5.705C6.09436 5.31564 6.72564 5.31564 7.115 5.705L10 8.59L12.885 5.705C13.2744 5.31564 13.9056 5.31564 14.295 5.705C14.6844 6.09436 14.6844 6.72564 14.295 7.115L11.41 10L14.295 12.885Z" fill="#636669"/>
</svg>
